<svg id="Capa_1" enable-background="new 0 0 512 512" height="512" viewBox="0 0 512 512" width="512" xmlns="http://www.w3.org/2000/svg"><g><g><path d="m353.92 237.16c0 66.719-62.3 120.649-82.92 136.659-6.083 4.72-9.273 7.48-15 7.48-5.732 0-8.918-2.761-15-7.48-20.62-16.01-82.92-69.939-82.92-136.659 0-8.8 1.08-17.38 3.02-25.68 1.031-4.441 19.006-4.056 19.006-4.056s-10.58-21.023-7.736-26.723c19.66-39.47 54.26-69.029 68.63-80.189 3.57-2.77 15 9.969 15 9.969s11.43-12.739 15-9.969c11.27 8.75 35.01 28.85 54.22 56.169 2.812 4.009-5.127 24.795-5.127 24.795s18.476-3.072 20.787 1.775c7.86 16.5 13.04 34.669 13.04 53.909z" fill="#45ce5f"/></g><path d="m353.92 237.16c0 66.719-62.3 120.649-82.92 136.659-6.083 4.72-9.273 7.48-15 7.48v-270.818s11.43-12.739 15-9.969c11.27 8.75 35.01 28.85 54.22 56.169 2.89 4.12-5.127 24.795-5.127 24.795s18.537-2.945 20.787 1.775c7.86 16.5 13.04 34.669 13.04 53.909z" fill="#0caa63"/><path d="m226.33 25.941-39.422-23.782c-7.095-4.28-16.313-1.999-20.592 5.095s-1.998 16.313 5.095 20.592l8.766 5.288c-95.151 32.43-159.559 121.848-159.559 222.866 0 115.909 84.092 212.959 195.434 232.001 8.166 1.397 15.918-4.092 17.314-12.256 1.396-8.166-4.091-15.917-12.256-17.314-98.79-16.896-170.492-102.03-170.492-202.431 0-88.895 56.215-165.812 137.668-194.003l-5.372 9.536c-4.066 7.218-1.512 16.365 5.706 20.431 7.219 4.066 16.365 1.511 20.432-5.706l22.545-40.017c4.023-6.897 1.832-16.015-5.267-20.3z" fill="#405580"/><path d="m295.947 23.999c-8.163-1.395-15.917 4.091-17.313 12.256-1.396 8.166 4.091 15.917 12.257 17.314 98.789 16.896 170.491 102.03 170.491 202.431 0 88.895-56.216 165.813-137.669 194.003l5.373-9.536c4.066-7.218 1.512-16.365-5.705-20.431-7.219-4.064-16.365-1.512-20.432 5.706 0 .001-22.549 40.023-22.55 40.024-4.084 7.252-1.62 16.139 5.271 20.293l39.421 23.782c7.097 4.282 16.314 1.994 20.592-5.095 4.279-7.093 1.998-16.313-5.096-20.592l-8.765-5.288c95.126-32.42 159.56-121.822 159.56-222.866 0-115.909-84.093-212.959-195.435-232.001z" fill="#283d66"/><path d="m340.88 183.251-69.88 67.269v153.448c0 8.28-6.72 15-15 15s-15-6.72-15-15v-115.818l-79.9-76.669c2.5-10.77 6.43-21.08 11.27-30.78l68.63 65.869v-146.058c6.026-4.676 9.256-7.48 15-7.48s8.939 2.777 15 7.48v108.369l54.22-52.2c5.78 8.24 11.16 17.13 15.66 26.57z" fill="#0caa63"/><path d="m340.88 183.251-69.88 67.269v153.448c0 8.28-6.72 15-15 15v-325.936c5.744 0 8.939 2.777 15 7.48v108.369l54.22-52.2c5.78 8.24 11.16 17.13 15.66 26.57z" fill="#067744"/></g></svg>